<svg clip-rule="evenodd" fill-rule="evenodd" height="512" image-rendering="optimizeQuality" shape-rendering="geometricPrecision" text-rendering="geometricPrecision" viewBox="0 0 43.3492 43.3492" width="512" xmlns="http://www.w3.org/2000/svg"><g id="Layer_x0020_1"><g id="_238613736"><g><path id="_238615296" d="m16.0497 4.2331c-.2486 0-.4506.2026-.4506.4514l.0001 2.8369c0 .2488.2019.4513.4505.4513l11.2498-.0002c.2495 0 .4515-.2022.4515-.4511v-2.8369c0-.2489-.2021-.4512-.4516-.4512l-2.73-.0002c-.1118 0-.2178-.0489-.2901-.134-.0723-.0852-.103-.1978-.0852-.308.1258-.7575-.0881-1.5276-.5852-2.1132-.494-.5831-1.2169-.9175-1.9834-.9175-.7653 0-1.4882.3344-1.9824.9174-.497.5856-.7099 1.3559-.5852 2.1134.0179.1099-.0128.2228-.0851.3079-.0723.085-.1793.1342-.2902.1342zm11.2498 4.5001h-11.2498c-.6674 0-1.2111-.5437-1.2111-1.2118l.0001-2.8369c0-.6682.5436-1.2117 1.211-1.2117l2.2142-.0001c-.0268-.8304.2544-1.6447.799-2.287.6398-.7537 1.5734-1.1857 2.5626-1.1857.9903-.0002 1.924.4322 2.5637 1.1858.5447.6422.8258 1.4567.7991 2.287l2.3112-.0001c.6683 0 1.2119.5437 1.2119 1.2118l.0001 2.8369c0 .6681-.5437 1.2118-1.212 1.2118z"/><path id="_238614696" d="m10.8868 6.7632c-1.1774 0-2.1359.9581-2.1359 2.1357v31.5544c0 1.1775.9585 2.1356 2.1358 2.1356l21.5767-.0001c1.1773 0 2.1348-.9579 2.1348-2.1355l.0001-31.5546c0-1.1775-.9576-2.1354-2.1349-2.1354l-3.9519-.0001v.7582c0 .6681-.5437 1.2117-1.2121 1.2117l-11.2497-.0002c-.6674 0-1.2111-.5434-1.2111-1.2115l.0001-.7582h-3.9519zm21.5766 36.586h-21.5766c-1.5972 0-2.8964-1.299-2.8964-2.8959l.0001-31.5546c0-1.5968 1.299-2.8958 2.8962-2.8958l4.3323-.0001c.2099 0 .3801.1703.3801.3803l.0001 1.1383c0 .2486.2019.4512.4505.4512l11.2498-.0001c.2495 0 .4515-.2023.4515-.4511v-1.1385c0-.2099.1703-.38.3802-.38l4.3322-.0001c1.5963 0 2.8953 1.2992 2.8953 2.8961l.0001 31.5544c0 1.5968-1.2992 2.8961-2.8954 2.8959z"/><path id="_238614552" d="m21.6751 2.4229c-.6684 0-1.2121.5435-1.2121 1.2115.0001.668.5437 1.2115 1.2121 1.2115.6674-.0001 1.211-.5435 1.211-1.2115 0-.6681-.5437-1.2115-1.211-1.2115zm0 3.1833c-1.0873 0-1.9726-.8845-1.9726-1.9718.0002-1.0874.8853-1.9719 1.9726-1.9719 1.0872 0 1.9715.8846 1.9715 1.9719 0 1.0871-.8843 1.9719-1.9715 1.9718z"/><path id="_238614672" d="m13.5355 13.3219c-.5118 0-.9278.4159-.9278.927.0001.5109.4159.927.9278.927.511-.0001.9269-.4159.9269-.927 0-.5113-.4159-.927-.9269-.927zm0 2.6143c-.9307 0-1.6882-.7569-1.6882-1.6873 0-.9306.7574-1.6874 1.6882-1.6874.9299 0 1.6873.757 1.6873 1.6874.0001.9304-.7575 1.6875-1.6873 1.6873z"/><path id="_238614192" d="m31.1217 14.6306h-14.259c-.2109 0-.3823-.1709-.3823-.3817.0001-.211.1713-.3819.3823-.3819l14.259-.0002c.2108 0 .3821.1712.3821.3821 0 .2108-.1713.3819-.3821.3817z"/><path id="_238614240" d="m13.5355 20.2733c-.5118 0-.9278.4159-.9278.9271.0001.5111.4159.9269.9278.9269.511-.0001.9269-.4158.9269-.9269 0-.5113-.4159-.9271-.9269-.9271zm0 2.6143c-.9307 0-1.6882-.7567-1.6882-1.6872 0-.9306.7574-1.6874 1.6882-1.6874.9299-.0001 1.6873.7569 1.6873 1.6874.0001.9304-.7575 1.6874-1.6873 1.6872z"/><path id="_238614408" d="m31.1217 21.5823h-14.259c-.2109 0-.3823-.171-.3823-.3819.0001-.211.1713-.3819.3823-.3819l14.259-.0002c.2108 0 .3821.1712.3821.3821 0 .2107-.1713.3819-.3821.3819z"/><path id="_238614048" d="m13.5355 27.2248c-.5118 0-.9278.4159-.9278.927.0001.5111.4159.927.9278.927.511-.0001.9269-.4159.9269-.927 0-.5113-.4159-.927-.9269-.927zm0 2.6143c-.9307 0-1.6882-.7568-1.6882-1.6873 0-.9306.7574-1.6874 1.6882-1.6874.9299 0 1.6873.7569 1.6873 1.6874.0001.9304-.7575 1.6874-1.6873 1.6873z"/><path id="_238614432" d="m31.1217 28.5337h-14.259c-.2109 0-.3823-.171-.3823-.3819.0001-.2109.1713-.3819.3823-.3819l14.259-.0001c.2108 0 .3821.1711.3821.382 0 .2108-.1713.3819-.3821.3819z"/><path id="_238614216" d="m13.5355 34.1762c-.5118 0-.9278.416-.9278.927.0001.5112.4159.9271.9278.9271.511-.0002.9269-.4158.9269-.9271 0-.5112-.4159-.9269-.9269-.927zm0 2.6143c-.9307 0-1.6882-.7568-1.6882-1.6873s.7574-1.6874 1.6882-1.6874c.9299-.0002 1.6873.7571 1.6873 1.6874.0001.9305-.7575 1.6875-1.6873 1.6873z"/><path id="_238614120" d="m31.1217 35.485h-14.259c-.2109 0-.3823-.1708-.3823-.3818.0001-.2109.1713-.3818.3823-.3818l14.259-.0002c.2108 0 .3821.1712.3821.382 0 .2109-.1713.382-.3821.3818z"/></g><path id="_238613568" d="m16.8626 13.867 14.259-.0002c.2109 0 .3822.1712.3822.3821.0001.2108-.1713.3819-.3822.3817h-14.2589c-.2109 0-.3823-.1709-.3823-.3817.0001-.211.1713-.3819.3822-.3819zm0 6.9515 14.259-.0002c.2109 0 .3822.1712.3822.3821.0001.2108-.1713.3819-.3822.3818h-14.2589c-.2109 0-.3823-.1709-.3823-.3818.0001-.211.1713-.3819.3822-.3819zm0 6.9514 14.259-.0001c.2109 0 .3822.1711.3822.382.0001.2108-.1713.3819-.3822.3819h-14.2589c-.2109 0-.3823-.171-.3823-.3819.0001-.2109.1713-.3819.3822-.3819zm0 6.9515 14.259-.0002c.2109 0 .3822.1713.3822.382.0001.2109-.1713.382-.3822.3818h-14.2589c-.2109 0-.3823-.1709-.3823-.3818.0001-.2109.1713-.3818.3822-.3818zm-5.9758-27.9582c-1.1774 0-2.1359.9581-2.1359 2.1357v31.5544c0 1.1775.9585 2.1356 2.1358 2.1356l21.5767-.0001c1.1773 0 2.1348-.9579 2.1348-2.1355l.0001-31.5546c0-1.1775-.9576-2.1354-2.1349-2.1354l-3.9519-.0001v.7582c0 .6681-.5437 1.2117-1.2121 1.2117l-11.2497-.0002c-.6674 0-1.2111-.5434-1.2111-1.2115l.0001-.7582h-3.9519zm2.6487 26.6526c.9299-.0002 1.6874.7571 1.6874 1.6874 0 .9305-.7575 1.6875-1.6874 1.6873-.9307 0-1.6883-.7568-1.6883-1.6873.0001-.9305.7575-1.6874 1.6883-1.6874zm0-6.9514c.9299 0 1.6874.7569 1.6874 1.6874 0 .9304-.7575 1.6874-1.6874 1.6873-.9307 0-1.6883-.7568-1.6883-1.6873.0001-.9306.7575-1.6874 1.6883-1.6874zm0-6.9514c.9299-.0001 1.6874.7569 1.6874 1.6874 0 .9304-.7575 1.6874-1.6874 1.6872-.9307 0-1.6883-.7568-1.6883-1.6872.0001-.9306.7575-1.6874 1.6883-1.6874zm0-6.9515c.9299 0 1.6874.7569 1.6874 1.6874 0 .9304-.7575 1.6875-1.6874 1.6873-.9307 0-1.6883-.7569-1.6883-1.6873.0001-.9306.7575-1.6874 1.6883-1.6874z" fill="#e0f6ff"/><path id="_238613328" d="m16.0497 7.9726 11.2498-.0001c.2495 0 .4515-.2023.4515-.4511v-1.1385-1.6984c0-.2489-.2021-.4512-.4516-.4512l-2.73-.0002c-.1118 0-.2178-.0489-.2901-.134-.0723-.0852-.103-.1977-.0852-.308.1258-.7575-.0881-1.5276-.5852-2.1132-.494-.5831-1.2169-.9175-1.9833-.9175-.7654 0-1.4884.3344-1.9825.9174-.497.5856-.71 1.3559-.5852 2.1134.0179.11-.0128.2228-.0851.3079-.0723.085-.1793.1342-.2902.1342l-2.6329-.0002c-.2486 0-.4506.2026-.4506.4514v1.6986l.0001 1.1383c0 .2486.2019.4512.4505.4512zm7.5969-4.3382c0 1.0871-.8843 1.9719-1.9715 1.9718-1.0872 0-1.9725-.8845-1.9725-1.9718 0-1.0874.8852-1.9719 1.9725-1.9719 1.0872 0 1.9715.8846 1.9715 1.9719z" fill="#757575"/><g fill="#e74c49"><path id="_238613376" d="m14.4624 14.2489c0-.5113-.4159-.927-.9269-.927-.5118 0-.9278.4159-.9278.927.0001.5109.4159.927.9278.927.511-.0001.9269-.4159.9269-.927z"/><path id="_238613952" d="m14.4624 21.2004c0-.5113-.4159-.927-.9269-.927-.5118 0-.9278.4158-.9278.927.0001.5111.4159.9269.9278.9269.511-.0001.9269-.4158.9269-.9269z"/><path id="_238613520" d="m14.4624 28.1518c0-.5113-.4159-.927-.9269-.927-.5118 0-.9278.4159-.9278.927.0001.5111.4159.927.9278.927.511-.0001.9269-.4159.9269-.927z"/><path id="_238613808" d="m14.4624 35.1032c0-.5112-.4159-.9269-.9269-.9269-.5118 0-.9278.4159-.9278.9269.0001.5112.4159.9271.9278.9271.511-.0002.9269-.4158.9269-.9271z"/></g></g></g></svg>