<svg clip-rule="evenodd" fill-rule="evenodd" height="512" image-rendering="optimizeQuality" shape-rendering="geometricPrecision" text-rendering="geometricPrecision" viewBox="0 0 43.3492 43.3492" width="512" xmlns="http://www.w3.org/2000/svg"><g id="Layer_x0020_1"><g id="_238584480"><g><path id="_238585152" d="m38.6775 31.8356c-.2099 0-.3803-.1702-.3803-.3801l.0002-21.9383c0-.1428-.1211-.2633-.2636-.2633h-32.7192c-.1426 0-.2636.1207-.2636.2635v21.9379c0 .2101-.1703.3803-.3802.3803s-.3803-.1702-.3803-.3801l.0001-21.9383c0-.5646.4594-1.0238 1.0238-1.0238l32.7194-.0002c.5646 0 1.0238.4596 1.0238 1.0242l.0002 21.9379c0 .2101-.1705.3803-.3803.3803z"/><path id="_238584408" d="m6.7146 29.4116h29.9191v-18.4941h-29.9191zm30.2995.7604h-30.6798c-.2098 0-.3802-.1702-.3802-.3802l.0002-19.2546c0-.2099.1701-.3802.38-.3802l30.6798-.0002c.2098 0 .38.1706.38.3805v19.2543c0 .2101-.1703.3805-.38.3804z"/><path id="_238584744" d="m1.1744 31.8356c-.2286 0-.4139.1861-.4139.4146l.0002.318c0 .8421.684 1.5273 1.5266 1.5273l38.7736-.0001c.8426 0 1.5278-.6851 1.5278-1.5272l.0002-.318c0-.2286-.1863-.4146-.4151-.4146h-40.9994zm39.8865 3.0202h-38.7734c-1.2615 0-2.2875-1.0261-2.2875-2.2876v-.318c0-.6481.5268-1.175 1.1744-1.175h40.9996c.6475 0 1.1752.5271 1.1752 1.175l.0001.318c0 1.2614-1.0269 2.2877-2.2884 2.2876z"/><path id="_238584672" d="m24.6761 34.8558c-.2099 0-.3804-.1701-.3804-.38 0-.6232-.5061-1.1301-1.1299-1.1301h-2.9862c-.6239 0-1.1301.5071-1.1301 1.1301 0 .2098-.1702.3801-.3802.3801-.2108-.0001-.3803-.1702-.3803-.3801.0001-1.0425.8477-1.8904 1.8904-1.8904l2.9865-.0001c1.0427 0 1.8902.8481 1.8902 1.8905 0 .2098-.1693.3801-.38.38z"/></g><path id="_238584768" d="m6.3343 10.1571 30.6798-.0002c.2098 0 .38.1705.38.3804v19.2543c0 .2101-.1703.3805-.38.3804h-30.6798c-.2098 0-.3802-.1702-.3802-.3802l.0002-19.2546c0-.2099.1701-.3801.38-.3801zm-1.2833 20.9181h33.2462l.0002-21.558c0-.1428-.121-.2633-.2636-.2633h-32.7192c-.1426 0-.2636.1207-.2636.2635v21.5578z" fill="#757575"/><path id="_238584720" d="m36.6337 10.9175h-29.9191v18.4941h29.9191z" fill="#6dc6fa"/><g fill="#e0f6ff"><path id="_238584456" d="m38.6775 31.8356h-34.0067-3.4964c-.2286 0-.4139.1861-.4139.4146l.0001.318c0 .8421.6841 1.5273 1.5267 1.5273h16.0402c.1764-.8608.9395-1.5101 1.8519-1.5101l2.9865-.0001c.9124 0 1.6754.6494 1.8518 1.5102l16.0432-.0001c.8426 0 1.5278-.6851 1.5278-1.5272l.0002-.318c0-.2286-.1864-.4146-.415-.4146z"/><path id="_238584504" d="m23.1658 33.3457h-2.9862c-.4903 0-.908.3132-1.0643.7498h5.1147c-.1563-.4367-.5739-.7498-1.0642-.7498z"/></g></g></g></svg>