<svg clip-rule="evenodd" fill-rule="evenodd" height="512" image-rendering="optimizeQuality" shape-rendering="geometricPrecision" text-rendering="geometricPrecision" viewBox="0 0 43.3492 43.3492" width="512" xmlns="http://www.w3.org/2000/svg"><g id="Layer_x0020_1"><g id="_238585104"><g><path id="_238588824" d="m13.9336 14.3626c-.1654 0-.318-.109-.3656-.2763l-1.701-5.9953-5.0318.0142s-.0012.0001-.0012.0001c-.2098-.0001-.3792-.1695-.3802-.3791 0-.21.1693-.3807.3792-.3813l5.3203-.0152c.0009 0 .0008.0001.0008.0001.1705-.0001.3198.1128.3663.2764l1.7794 6.2725c.0575.2018-.0604.4122-.2624.4695-.0337.0097-.0693.0146-.1038.0144z"/><path id="_238588416" d="m18.3585 29.2987h18.8614l5.2131-14.9361h-28.0053zm19.1307.7604h-19.4239c-.1731 0-.3238-.1163-.3683-.2834l-4.1308-15.6965c-.0297-.1141-.0051-.2355.0672-.3288.0713-.0936.1831-.1482.301-.1482h29.0345c.1236 0 .2384.0598.3097.1602.0714.1002.0901.2291.0495.3454l-5.4795 15.6964c-.0535.1526-.197.255-.3594.2549z"/><path id="_238587984" d="m1.5812 6.9713c-.4504 0-.8169.3664-.8169.8166.0002.4501.3664.8165.8169.8165l4.0558-.0002c.4505 0 .8168-.366.8168-.8163 0-.4504-.3664-.8165-.8169-.8165zm4.0558 2.3973h-4.0558c-.8721 0-1.5812-.709-1.5812-1.5807.0002-.8717.7089-1.5807 1.5812-1.5807l4.0558-.0001c.8714 0 1.5812.7092 1.5812 1.5808.0002.8716-.71 1.5808-1.5812 1.5807z"/><path id="_238587936" d="m37.5625 32.6525h-20.7922c-.1317 0-.2546-.0679-.3229-.18-.0692-.112-.0762-.2519-.0168-.3698l1.2943-2.5937c.094-.1878.3216-.264.5098-.1701.1882.0937.2643.322.1702.5099l-1.0198 2.0434h20.1774c.2099 0 .3802.1704.3802.3803.0001.2098-.1704.3802-.3802.38z"/><path id="_238588056" d="m21.9498 30.0591c-.1872 0-.3496-.1372-.3764-.3272l-2.2088-15.6966c-.0288-.2079.1157-.4001.3236-.4293.2091-.0298.4.1157.4297.3235l2.2082 15.6965c.0296.2079-.116.4002-.3229.4295-.0187.0025-.0367.0037-.0534.0036z"/><path id="_238588560" d="m25.8352 30.0591c-.207 0-.3764-.1656-.3804-.3732l-.2871-15.6967c-.0038-.2099.1634-.3831.3733-.3869.2151-.0032.3832.1633.3871.3733l.2873 15.6963c.0029.2098-.1635.3834-.3734.3872-.0028 0-.005.0001-.0068 0z"/><path id="_238588200" d="m29.7205 30.0591c-.0138 0-.0268-.0005-.0407-.0019-.2088-.022-.3604-.2087-.3386-.4176l1.6358-15.6967c.0219-.2088.2089-.3603.4178-.3386.2089.0215.3604.2087.3386.4176l-1.6357 15.6963c-.0207.1956-.1852.3411-.3772.3409z"/><path id="_238588608" d="m33.605 30.0591c-.0279 0-.0566-.0029-.0844-.0093-.2048-.0464-.3336-.25-.2871-.4548l3.5578-15.6967c.0465-.2047.2503-.3329.4543-.2866.2051.0462.3337.25.2871.4548l-3.5574 15.6965c-.0397.1765-.1972.2963-.3703.2961z"/><path id="_238587864" d="m41.5994 18.2867h-26.6321c-.2099 0-.3804-.1701-.3804-.3801.0001-.21.1703-.3802.3802-.3802l26.6323-.0001c.2099 0 .3801.1703.3801.3803.0002.2099-.1703.3803-.3801.3801z"/><path id="_238588392" d="m40.2291 22.2108h-24.2292c-.2099 0-.3803-.1701-.3803-.3801.0002-.21.1703-.3802.3803-.3802h24.2292c.2098 0 .3801.1703.3801.3802.0001.2099-.1703.3802-.3801.3801z"/><path id="_238588176" d="m38.8596 26.1349h-21.8269c-.211 0-.3803-.1701-.3803-.3801s.1693-.3801.3802-.3801l21.827-.0001c.2099 0 .3802.1703.3802.3802.0001.2099-.1703.3802-.3802.3801z"/><path id="_238588488" d="m20.5725 34.128c-.6209 0-1.1269.5055-1.1269 1.1269.0001.6213.506 1.1269 1.1268 1.1269.6219-.0001 1.1268-.5054 1.1268-1.1269.0002-.6216-.505-1.1269-1.1267-1.1269zm0 3.0141c-1.0406 0-1.8873-.8464-1.8873-1.8872.0001-1.0407.8465-1.8873 1.8872-1.8873 1.0408-.0002 1.8872.8467 1.8872 1.8873.0001 1.0406-.8466 1.8874-1.8871 1.8872z"/><path id="_238587336" d="m33.7603 34.128c-.6218 0-1.1268.5055-1.1268 1.1269.0002.6213.5049 1.1269 1.1267 1.1269.621-.0001 1.1269-.5054 1.1269-1.1269 0-.6216-.506-1.1269-1.1268-1.1269zm0 3.0141c-1.0407 0-1.8873-.8464-1.8873-1.8872.0001-1.0407.8466-1.8873 1.8872-1.8873 1.0407-.0002 1.8873.8467 1.8873 1.8873s-.8466 1.8874-1.8872 1.8872z"/></g><path id="_238587120" d="m1.5812 8.6044 4.0558-.0002c.4505 0 .8168-.366.8168-.8163 0-.4504-.3664-.8165-.8169-.8165l-4.0557-.0001c-.4504 0-.8168.3664-.8168.8166.0001.4501.3663.8165.8168.8165z" fill="#6dc6fa"/><path id="_238587432" d="m19.4107 14.3626h-4.983l.8326 3.1638h4.5956z" fill="#e9f6ff"/><path id="_238587480" d="m19.9629 18.2867h-4.5025l.8326 3.1638h4.1151z" fill="#e9f6ff"/><path id="_238587768" d="m20.1788 14.3626.4451 3.1638h4.6085l-.0579-3.1638z" fill="#e9f6ff"/><path id="_238587456" d="m25.2463 18.2867h-4.5154l.445 3.1638h4.1283z" fill="#e9f6ff"/><path id="_238587504" d="m25.9352 14.3626.0579 3.1638h4.6104l.3298-3.1638z" fill="#e0f6ff"/><path id="_238586448" d="m30.5243 18.2867h-4.5173l.0579 3.1638h4.1297z" fill="#e9f6ff"/><path id="_238586760" d="m31.6979 14.3626-.3297 3.1638h4.6008l.717-3.1638z" fill="#e0f6ff"/><g fill="#e9f6ff"><path id="_238586520" d="m35.7966 18.2867h-4.5076l-.3297 3.1638h4.1202z"/><path id="_238586808" d="m37.4656 14.3626-.717 3.1638 4.5802-.0001 1.1043-3.1637z"/><path id="_238586496" d="m41.0634 18.2867h-4.4871l-.7171 3.1638h4.1z"/><path id="_238586784" d="m39.6938 22.2108h-4.0069l-.7171 3.1638h3.6197z"/><path id="_238586400" d="m34.1901 25.3746.7171-3.1638h-4.0272l-.3297 3.1638z"/><path id="_238586736" d="m29.7856 25.3746.3297-3.1638h-4.0364l.0579 3.1639z"/><path id="_238585632" d="m25.376 25.3747-.0579-3.1639h-4.0352l.4451 3.1639z"/><path id="_238585944" d="m20.9603 25.3747-.4452-3.1639h-4.022l.8327 3.1639z"/><path id="_238585776" d="m21.0673 26.1349h-3.5414l.8326 3.1638h3.154z"/><path id="_238585560" d="m21.8349 26.1349.4451 3.1638h3.1678l-.0579-3.1638z"/><path id="_238585872" d="m26.1507 26.1349.0579 3.1638h3.1681l.3297-3.1638z"/><path id="_238586184" d="m30.4711 26.1349-.3297 3.1638h3.1592l.7172-3.1638z"/><path id="_238585920" d="m34.7975 26.1349-.717 3.1638h3.1394l1.1043-3.1638z"/></g><path id="_238585896" d="m34.887 35.2549c.0001-.6216-.5059-1.1269-1.1267-1.1269-.6218 0-1.1268.5055-1.1268 1.1269.0002.6213.5049 1.1269 1.1267 1.1269.621-.0001 1.1268-.5054 1.1268-1.1269z" fill="#6dc6fa"/><path id="_238584984" d="m20.5724 36.3818c.6219-.0001 1.1268-.5054 1.1268-1.1269.0002-.6216-.505-1.1269-1.1267-1.1269-.6209 0-1.1269.5055-1.1269 1.1269.0001.6213.506 1.1269 1.1268 1.1269z" fill="#6dc6fa"/></g></g></svg>