<svg id="Capa_1" enable-background="new 0 0 512 512" height="512" viewBox="0 0 512 512" width="512" xmlns="http://www.w3.org/2000/svg"><g><g fill="#feaee1"><path d="m402.015 70.255v392.735h1c59.495-44.699 97.985-115.845 97.985-195.99 0-80.595-38.92-152.094-98.985-196.745z"/><path d="m11 267c0 80.145 38.49 151.291 97.985 195.99h1v-392.735c-60.065 44.651-98.985 116.15-98.985 196.745z"/></g><g><path d="m396.889 48h-281.778l-6.126 1v414c40.951 30.765 91.852 49 147.015 49s106.064-18.235 147.015-49v-414z" fill="#fef0ae"/></g><path d="m108.985 463c13.054 9.807 27.123 18.334 42.015 25.41v-439.41h-42.015z" fill="#fee97d"/><g><path d="m429 93.523v217.477c0 5.523 4.477 10 10 10h56.016c3.909-17.375 5.984-35.444 5.984-54 0-67.776-27.524-129.122-72-173.477z" fill="#fe93d3"/></g><g><path d="m77.029 434.292v-202.292c0-5.523-4.477-10-10-10h-51.89c-2.709 14.589-4.139 29.626-4.139 45 0 64.684 25.079 123.502 66.029 167.292z" fill="#fe93d3"/></g><g><path d="m403.015 49h-294.03v-39c0-5.523 4.477-10 10-10h274.029c5.523 0 10 4.477 10 10v39z" fill="#fed402"/></g><g><g><g><path d="m175 100.5h-15c-2.761 0-5-2.239-5-5v-15c0-2.761 2.239-5 5-5h15c2.761 0 5 2.239 5 5v15c0 2.761-2.239 5-5 5z" fill="#fff"/><path d="m175 106.5h-15c-6.065 0-11-4.935-11-11v-15c0-6.065 4.935-11 11-11h15c6.065 0 11 4.935 11 11v15c0 6.065-4.935 11-11 11zm-14-12h13v-13h-13z" fill="#fac600"/></g><g><path d="m356.5 94h-152c-1.657 0-3-1.343-3-3v-6c0-1.657 1.343-3 3-3h152c1.657 0 3 1.343 3 3v6c0 1.657-1.343 3-3 3z" fill="#fac600"/></g></g><g><g><path d="m175 148.5h-15c-2.761 0-5-2.239-5-5v-15c0-2.761 2.239-5 5-5h15c2.761 0 5 2.239 5 5v15c0 2.761-2.239 5-5 5z" fill="#fff"/><path d="m175 154.5h-15c-6.065 0-11-4.935-11-11v-15c0-6.065 4.935-11 11-11h15c6.065 0 11 4.935 11 11v15c0 6.065-4.935 11-11 11zm-14-12h13v-13h-13z" fill="#fac600"/></g><g><path d="m356.5 142h-96.5c-1.657 0-3-1.343-3-3v-6c0-1.657 1.343-3 3-3h96.5c1.657 0 3 1.343 3 3v6c0 1.657-1.343 3-3 3z" fill="#fac600"/></g><g><path d="m242 142h-37.5c-1.657 0-3-1.343-3-3v-6c0-1.657 1.343-3 3-3h37.5c1.657 0 3 1.343 3 3v6c0 1.657-1.343 3-3 3z" fill="#fac600"/></g></g><g><g><path d="m175 196.5h-15c-2.761 0-5-2.239-5-5v-15c0-2.761 2.239-5 5-5h15c2.761 0 5 2.239 5 5v15c0 2.761-2.239 5-5 5z" fill="#fff"/><path d="m175 202.5h-15c-6.065 0-11-4.935-11-11v-15c0-6.065 4.935-11 11-11h15c6.065 0 11 4.935 11 11v15c0 6.065-4.935 11-11 11zm-14-12h13v-13h-13z" fill="#fac600"/></g><g><path d="m356.5 190h-152c-1.657 0-3-1.343-3-3v-6c0-1.657 1.343-3 3-3h152c1.657 0 3 1.343 3 3v6c0 1.657-1.343 3-3 3z" fill="#fac600"/></g></g><g><g><path d="m175 244.5h-15c-2.761 0-5-2.239-5-5v-15c0-2.761 2.239-5 5-5h15c2.761 0 5 2.239 5 5v15c0 2.761-2.239 5-5 5z" fill="#fff"/><path d="m175 250.5h-15c-6.065 0-11-4.935-11-11v-15c0-6.065 4.935-11 11-11h15c6.065 0 11 4.935 11 11v15c0 6.065-4.935 11-11 11zm-14-12h13v-13h-13z" fill="#fac600"/></g><g><path d="m356.5 238h-152c-1.657 0-3-1.343-3-3v-6c0-1.657 1.343-3 3-3h152c1.657 0 3 1.343 3 3v6c0 1.657-1.343 3-3 3z" fill="#fac600"/></g></g><g><g><path d="m175 292.5h-15c-2.761 0-5-2.239-5-5v-15c0-2.761 2.239-5 5-5h15c2.761 0 5 2.239 5 5v15c0 2.761-2.239 5-5 5z" fill="#fff"/><path d="m175 298.5h-15c-6.065 0-11-4.935-11-11v-15c0-6.065 4.935-11 11-11h15c6.065 0 11 4.935 11 11v15c0 6.065-4.935 11-11 11zm-14-12h13v-13h-13z" fill="#fac600"/></g><g><path d="m356.5 286h-31.5c-1.657 0-3-1.343-3-3v-6c0-1.657 1.343-3 3-3h31.5c1.657 0 3 1.343 3 3v6c0 1.657-1.343 3-3 3z" fill="#fac600"/></g><g><path d="m308 286h-103.5c-1.657 0-3-1.343-3-3v-6c0-1.657 1.343-3 3-3h103.5c1.657 0 3 1.343 3 3v6c0 1.657-1.343 3-3 3z" fill="#fac600"/></g></g><g><g><path d="m175 340.5h-15c-2.761 0-5-2.239-5-5v-15c0-2.761 2.239-5 5-5h15c2.761 0 5 2.239 5 5v15c0 2.761-2.239 5-5 5z" fill="#fff"/><path d="m175 346.5h-15c-6.065 0-11-4.935-11-11v-15c0-6.065 4.935-11 11-11h15c6.065 0 11 4.935 11 11v15c0 6.065-4.935 11-11 11zm-14-12h13v-13h-13z" fill="#fac600"/></g><g><path d="m356.5 334h-152c-1.657 0-3-1.343-3-3v-6c0-1.657 1.343-3 3-3h152c1.657 0 3 1.343 3 3v6c0 1.657-1.343 3-3 3z" fill="#fac600"/></g></g><g><g><path d="m175 388.5h-15c-2.761 0-5-2.239-5-5v-15c0-2.761 2.239-5 5-5h15c2.761 0 5 2.239 5 5v15c0 2.761-2.239 5-5 5z" fill="#fff"/><path d="m175 394.5h-15c-6.065 0-11-4.935-11-11v-15c0-6.065 4.935-11 11-11h15c6.065 0 11 4.935 11 11v15c0 6.065-4.935 11-11 11zm-14-12h13v-13h-13z" fill="#fac600"/></g><g><path d="m340 382h-135.5c-1.657 0-3-1.343-3-3v-6c0-1.657 1.343-3 3-3h135.5c1.657 0 3 1.343 3 3v6c0 1.657-1.343 3-3 3z" fill="#fac600"/></g></g><g><g><path d="m175 436.5h-15c-2.761 0-5-2.239-5-5v-15c0-2.761 2.239-5 5-5h15c2.761 0 5 2.239 5 5v15c0 2.761-2.239 5-5 5z" fill="#fff"/><path d="m175 442.5h-15c-6.065 0-11-4.935-11-11v-15c0-6.065 4.935-11 11-11h15c6.065 0 11 4.935 11 11v15c0 6.065-4.935 11-11 11zm-14-12h13v-13h-13z" fill="#fac600"/></g><g><path d="m311 430h-106.5c-1.657 0-3-1.343-3-3v-6c0-1.657 1.343-3 3-3h106.5c1.657 0 3 1.343 3 3v6c0 1.657-1.343 3-3 3z" fill="#fac600"/></g></g></g><g><path d="m333.533 406.438c-.614 0-1.21-.133-1.771-.395l-13.195-6.153c-.986-.46-1.697-1.262-2.086-2.195l-5.48 26.56c-.37 1.791.54 3.601 2.197 4.374s3.628.306 4.763-1.128l16.811-21.255c-.397.124-.813.192-1.239.192z" fill="#e8b800"/><g><path d="m328.257 366.806-12.628 27.081c-1.214 2.603-.088 5.696 2.515 6.91l13.195 6.153c2.603 1.214 5.696.088 6.91-2.515l12.628-27.081z" fill="#6e61b6"/></g><path d="m330.267 396.359c-2.603-1.214-3.729-4.307-2.515-6.91l8.763-18.792-8.258-3.851-12.628 27.081c-1.214 2.603-.088 5.696 2.515 6.91l13.195 6.153c2.603 1.214 5.696.088 6.91-2.515l1.668-3.576z" fill="#6354b1"/><g><path d="m459.99 113.832c-7.808-3.641-17.089-.263-20.73 7.545l-11.055 23.708h.001l28.275 13.185 11.055-23.708c3.64-7.808.262-17.089-7.546-20.73z" fill="#fed402"/></g><path d="m448.055 130.01c3.492-7.49 12.172-10.885 19.765-7.937-1.433-3.508-4.125-6.513-7.831-8.241-7.808-3.641-17.089-.263-20.73 7.545l-11.055 23.708h.001l10.531 4.91z" fill="#fac600"/><path d="m424.824 152.336-97.721 209.562c-1.167 2.503-.084 5.478 2.418 6.645l19.212 8.959c2.503 1.167 5.478.084 6.645-2.418l97.72-209.562z" fill="#978ecb"/><path d="m346.423 360.207c-2.503-1.167-3.585-4.142-2.418-6.645l91.509-196.242-10.69-4.985-97.721 209.562c-1.167 2.503-.084 5.478 2.418 6.645l19.212 8.959c2.503 1.167 5.478.084 6.645-2.418l4.098-8.789z" fill="#8379c1"/><g><path d="m433.134 242.858c-.708 0-1.426-.151-2.11-.469-2.502-1.167-3.585-4.142-2.418-6.645l28.567-61.263c.61-1.307.674-2.773.18-4.128-.493-1.355-1.485-2.438-2.792-3.047l-30.16-14.064c-2.502-1.167-3.585-4.142-2.418-6.645 1.167-2.502 4.142-3.584 6.645-2.418l30.16 14.064c3.728 1.739 6.556 4.825 7.962 8.69s1.225 8.047-.514 11.775l-28.567 61.263c-.849 1.819-2.652 2.887-4.535 2.887z" fill="#fedf30"/></g></g><path d="m161 0h-42.015c-5.523 0-10 4.477-10 10v39h42.015v-39c0-5.523 4.477-10 10-10z" fill="#fac600"/></g></svg>