<svg version="1.1" id="Layer_1" xmlns="http://www.w3.org/2000/svg" xmlns:xlink="http://www.w3.org/1999/xlink" x="0px" y="0px"
	 width="100%" viewBox="0 0 246 55" enable-background="new 0 0 246 55" xml:space="preserve">
<path fill="#000000" opacity="1.000000" stroke="none" 
	d="
M247.000000,10.000000 
	C247.000000,25.257565 247.000000,40.515129 247.000000,56.000000 
	C232.979919,56.000000 218.958618,56.000000 204.149658,55.626495 
	C203.591034,53.265965 203.820053,51.278938 204.050644,49.278229 
	C193.979050,49.278229 184.638275,49.278229 175.000000,49.278229 
	C175.000000,51.700775 175.000000,53.850388 175.000000,56.000000 
	C170.310745,56.000000 165.621490,56.000000 160.128937,55.769653 
	C159.851715,54.903751 160.338760,54.230579 160.909653,53.638195 
	C172.987717,41.105404 174.672775,22.364685 164.973526,7.922816 
	C163.390137,5.565206 161.661499,3.305145 160.000000,1.000000 
	C187.833328,1.000000 215.666748,0.978028 243.499741,1.073681 
	C244.718002,1.077868 247.471313,-0.533132 246.531555,3.500000 
	C240.131378,4.000000 234.199615,4.000000 228.314560,4.000000 
	C228.314560,6.280708 228.314560,8.002645 228.314560,10.000000 
	C234.748230,10.000000 240.874115,10.000000 247.000000,10.000000 
M207.066650,48.785873 
	C207.823990,49.855907 208.754501,51.908455 209.306137,51.811234 
	C210.943024,51.522758 213.513412,50.672951 213.812363,49.539669 
	C217.601471,35.176144 221.055466,20.724211 224.631439,6.145707 
	C222.447723,6.145707 220.483475,6.145707 218.355301,6.145707 
	C214.708725,20.171459 211.086746,34.102524 207.066650,48.785873 
z"/>
<path fill="#000000" opacity="1.000000" stroke="none" 
	d="
M43.000000,56.000000 
	C29.069973,56.000000 15.139946,56.000000 1.000000,56.000000 
	C1.000000,40.979755 1.000000,25.958536 1.468440,10.468657 
	C7.868632,10.000000 13.800385,10.000000 19.685440,10.000000 
	C19.685440,7.719292 19.685440,5.997356 19.685440,4.000000 
	C13.251776,4.000000 7.125888,4.000000 1.000000,4.000000 
	C1.000000,3.004998 1.000000,2.009996 0.999999,1.007497 
	C29.020893,1.000000 57.041786,1.000000 85.868553,1.230522 
	C86.393143,1.869936 86.169701,2.337668 85.822227,2.679224 
	C72.957138,15.325212 71.375092,35.009750 82.031746,50.199261 
	C83.377159,52.116943 84.678329,54.065662 86.000000,56.000000 
	C81.643097,56.000000 77.286201,56.000000 72.098206,55.682137 
	C72.194199,52.652458 73.431274,49.315556 69.014641,49.118176 
	C60.462521,48.735977 51.881229,49.006477 43.000000,49.006477 
	C43.000000,51.693417 43.000000,53.846710 43.000000,56.000000 
M29.497042,37.998093 
	C30.312195,40.962299 31.643454,43.894756 31.828199,46.897743 
	C32.149544,52.121124 34.688526,52.788273 38.930138,51.528385 
	C38.930138,50.141594 39.176189,48.915428 38.892422,47.827450 
	C35.746883,35.767437 32.152172,23.809372 29.484034,11.647112 
	C28.323252,6.355885 26.200600,5.009678 21.406832,6.411931 
	C23.991568,16.818794 26.530844,27.042624 29.497042,37.998093 
z"/>
<path fill="#000000" opacity="1.000000" stroke="none" 
	d="
M90.000000,1.000000 
	C111.687561,1.000000 133.375122,1.000000 155.866608,1.216427 
	C155.530807,2.790894 154.391083,4.148934 153.123413,5.659436 
	C160.091873,11.758820 164.106689,19.103714 164.088943,28.650665 
	C164.071243,38.166908 159.895096,45.418442 153.420456,51.127285 
	C154.415527,53.006966 155.207764,54.503483 156.000000,56.000000 
	C134.312439,56.000000 112.624878,56.000000 90.130920,55.765671 
	C90.577484,54.040344 91.830452,52.549347 93.086349,51.054871 
	C85.648186,45.234467 82.136528,37.592766 82.082245,28.587307 
	C82.026855,19.398157 85.713074,11.676790 92.747604,6.142392 
	C91.752655,4.280249 90.876328,2.640124 90.000000,1.000000 
M140.068893,9.731766 
	C136.691727,28.154133 125.419960,39.719307 107.768661,46.133495 
	C109.640175,48.107437 111.171501,49.722576 113.146454,51.805618 
	C119.046227,47.842621 124.799904,44.454441 130.011398,40.373806 
	C139.646088,32.829758 143.415710,21.752605 146.598251,10.539282 
	C146.927490,9.379240 145.521759,6.963106 144.287735,6.288815 
	C142.016632,5.047839 140.814255,6.752511 140.068893,9.731766 
M104.935425,23.703291 
	C107.076912,28.202002 108.884018,24.068548 111.315689,23.756725 
	C108.904503,17.889835 106.662476,12.434515 104.307007,6.703198 
	C102.343658,7.422472 100.625122,8.052057 98.640472,8.779133 
	C100.712349,13.794030 102.619026,18.409071 104.935425,23.703291 
M116.433113,7.937591 
	C117.604996,10.926404 119.206963,13.825529 119.853096,16.923979 
	C120.963829,22.250380 123.491913,21.684143 127.117798,19.226009 
	C124.996994,13.784788 122.907059,8.422787 120.117554,1.265939 
	C118.258415,3.992133 117.159943,5.602911 116.433113,7.937591 
z"/>
<path fill="#448AFF" opacity="1.000000" stroke="none" 
	d="
M89.600006,1.000000 
	C90.876328,2.640124 91.752655,4.280249 92.747604,6.142392 
	C85.713074,11.676790 82.026855,19.398157 82.082245,28.587307 
	C82.136528,37.592766 85.648186,45.234467 93.086349,51.054871 
	C91.830452,52.549347 90.577484,54.040344 89.662262,55.765671 
	C88.933327,56.000000 87.866661,56.000000 86.399994,56.000000 
	C84.678329,54.065662 83.377159,52.116943 82.031746,50.199261 
	C71.375092,35.009750 72.957138,15.325212 85.822227,2.679224 
	C86.169701,2.337668 86.393143,1.869936 86.337212,1.230522 
	C87.066673,1.000000 88.133339,1.000000 89.600006,1.000000 
z"/>
<path fill="#448AFF" opacity="1.000000" stroke="none" 
	d="
M156.399994,56.000000 
	C155.207764,54.503483 154.415527,53.006966 153.420456,51.127285 
	C159.895096,45.418442 164.071243,38.166908 164.088943,28.650665 
	C164.106689,19.103714 160.091873,11.758820 153.123413,5.659436 
	C154.391083,4.148934 155.530807,2.790894 156.335266,1.216427 
	C157.066666,1.000000 158.133347,1.000000 159.600006,1.000000 
	C161.661499,3.305145 163.390137,5.565206 164.973526,7.922816 
	C174.672775,22.364685 172.987717,41.105404 160.909653,53.638195 
	C160.338760,54.230579 159.851715,54.903751 159.662811,55.769653 
	C158.933334,56.000000 157.866653,56.000000 156.399994,56.000000 
z"/>
<path fill="#448AFF" opacity="1.000000" stroke="none" 
	d="
M175.468658,56.000000 
	C175.000000,53.850388 175.000000,51.700775 175.000000,49.278229 
	C184.638275,49.278229 193.979050,49.278229 204.050644,49.278229 
	C203.820053,51.278938 203.591034,53.265965 203.681000,55.626495 
	C194.645767,56.000000 185.291550,56.000000 175.468658,56.000000 
z"/>
<path fill="#448AFF" opacity="1.000000" stroke="none" 
	d="
M43.468658,56.000000 
	C43.000000,53.846710 43.000000,51.693417 43.000000,49.006477 
	C51.881229,49.006477 60.462521,48.735977 69.014641,49.118176 
	C73.431274,49.315556 72.194199,52.652458 71.633553,55.682137 
	C62.645771,56.000000 53.291542,56.000000 43.468658,56.000000 
z"/>
<path fill="#448AFF" opacity="1.000000" stroke="none" 
	d="
M1.000000,4.428462 
	C7.125888,4.000000 13.251776,4.000000 19.685440,4.000000 
	C19.685440,5.997356 19.685440,7.719292 19.685440,10.000000 
	C13.800385,10.000000 7.868632,10.000000 1.468440,10.000000 
	C1.000000,8.285642 1.000000,6.571283 1.000000,4.428462 
z"/>
<path fill="#448AFF" opacity="1.000000" stroke="none" 
	d="
M247.000000,9.571538 
	C240.874115,10.000000 234.748230,10.000000 228.314560,10.000000 
	C228.314560,8.002645 228.314560,6.280708 228.314560,4.000000 
	C234.199615,4.000000 240.131378,4.000000 246.531555,4.000000 
	C247.000000,5.714359 247.000000,7.428717 247.000000,9.571538 
z"/>
<path fill="#448AFF" opacity="1.000000" stroke="none" 
	d="
M207.265717,48.409733 
	C211.086746,34.102524 214.708725,20.171459 218.355301,6.145707 
	C220.483475,6.145707 222.447723,6.145707 224.631439,6.145707 
	C221.055466,20.724211 217.601471,35.176144 213.812363,49.539669 
	C213.513412,50.672951 210.943024,51.522758 209.306137,51.811234 
	C208.754501,51.908455 207.823990,49.855907 207.265717,48.409733 
z"/>
<path fill="#448AFF" opacity="1.000000" stroke="none" 
	d="
M29.283581,37.632271 
	C26.530844,27.042624 23.991568,16.818794 21.406832,6.411931 
	C26.200600,5.009678 28.323252,6.355885 29.484034,11.647112 
	C32.152172,23.809372 35.746883,35.767437 38.892422,47.827450 
	C39.176189,48.915428 38.930138,50.141594 38.930138,51.528385 
	C34.688526,52.788273 32.149544,52.121124 31.828199,46.897743 
	C31.643454,43.894756 30.312195,40.962299 29.283581,37.632271 
z"/>
<path fill="#448AFF" opacity="1.000000" stroke="none" 
	d="
M140.276794,9.372623 
	C140.814255,6.752511 142.016632,5.047839 144.287735,6.288815 
	C145.521759,6.963106 146.927490,9.379240 146.598251,10.539282 
	C143.415710,21.752605 139.646088,32.829758 130.011398,40.373806 
	C124.799904,44.454441 119.046227,47.842621 113.146454,51.805618 
	C111.171501,49.722576 109.640175,48.107437 107.768661,46.133495 
	C125.419960,39.719307 136.691727,28.154133 140.276794,9.372623 
z"/>
<path fill="#448AFF" opacity="1.000000" stroke="none" 
	d="
M104.730560,23.363701 
	C102.619026,18.409071 100.712349,13.794030 98.640472,8.779133 
	C100.625122,8.052057 102.343658,7.422472 104.307007,6.703198 
	C106.662476,12.434515 108.904503,17.889835 111.315689,23.756725 
	C108.884018,24.068548 107.076912,28.202002 104.730560,23.363701 
z"/>
<path fill="#448AFF" opacity="1.000000" stroke="none" 
	d="
M116.247292,7.575640 
	C117.159943,5.602911 118.258415,3.992133 120.117554,1.265939 
	C122.907059,8.422787 124.996994,13.784788 127.117798,19.226009 
	C123.491913,21.684143 120.963829,22.250380 119.853096,16.923979 
	C119.206963,13.825529 117.604996,10.926404 116.247292,7.575640 
z"/>
</svg>