<svg id="Color_1_" height="512" viewBox="0 0 64 64" width="512" xmlns="http://www.w3.org/2000/svg"><g fill="#e5e5e5"><path d="m45 53.5c0 5.25 3 9.5 3 9.5s3-4.25 3-9.5-1.34-7.5-3-7.5-3 2.25-3 7.5z"/><path d="m52.16 29.03c-.02-.01-.05-.02-.07-.02 6.64-1.86 10.95-7.21 10.95-7.21s-6.47-2.35-13.12-.5c-.57.16-1.1.32-1.59.49 5.39-4.22 7.35-10.71 7.35-10.71s-6.35.23-11.69 3.99h-.01c2.36-6.27.81-12.69.81-12.69s-5.8 3.7-8.38 10.1c-.14.35-.27.7-.39 1.03h-.02v-.01c0-6.9-4-12.5-4-12.5s-4 5.6-4 12.5v.01h-.02c-.12-.33-.25-.68-.39-1.03-2.58-6.4-8.38-10.1-8.38-10.1s-1.55 6.42.81 12.69h-.01c-5.34-3.76-11.69-3.99-11.69-3.99s1.96 6.49 7.35 10.71c-.49-.17-1.02-.33-1.59-.49-6.65-1.85-13.12.5-13.12.5s4.31 5.35 10.95 7.21c-.02 0-.05.01-.07.02-6.62 1.93-10.88 7.34-10.88 7.34l15.04-4.39v4.02c.2 0 .4.02.6.06 1.11-1.71 3.7-3.16 7.12-4.06 2.42-.64 5.25-1.01 8.28-1.01s5.86.37 8.28 1.01c3.42.9 6.01 2.35 7.12 4.06-1.37.27-2.4 1.48-2.4 2.94 0 .48.11.93.31 1.33-.78.5-1.31 1.51-1.31 2.67 0 .82.27 1.58.7 2.12.44.54 1.04.88 1.7.88h1.6 1.6c1.32 0 2.4-1.35 2.4-3 0-1.16-.53-2.17-1.31-2.67.2-.4.31-.85.31-1.33 0-.91-.41-1.73-1.05-2.28 6.61 1.91 13.09-.35 13.09-.35s-4.26-5.41-10.88-7.34z"/><path d="m18.685 40.345c.2-.4.31-.849.31-1.329 0-1.459-1.029-2.668-2.398-2.938-.2-.04-.4-.06-.6-.06v-4.018l-15.03 4.387s6.476 2.259 13.082.35c-.64.55-1.049 1.369-1.049 2.279 0 .48.11.929.31 1.329-.779.5-1.309 1.509-1.309 2.668 0 1.649 1.079 2.998 2.398 2.998h1.599 1.599c.66 0 1.259-.34 1.699-.879.43-.54.7-1.299.7-2.119-.002-1.159-.532-2.169-1.311-2.668z"/><path d="m12.998 53.506c0 5.247 2.998 9.494 2.998 9.494s2.998-4.247 2.998-9.494-1.339-7.495-2.998-7.495-2.998 2.249-2.998 7.495z"/></g><path d="m52 43c0 1.65-1.08 3-2.4 3h-1.6-1.6c-.66 0-1.26-.34-1.7-.88-.43-.54-.7-1.3-.7-2.12 0-1.16.53-2.17 1.31-2.67.49.99 1.51 1.67 2.69 1.67s2.2-.68 2.69-1.67c.78.5 1.31 1.51 1.31 2.67z" fill="#ff9700"/><path d="m51 39c0 .48-.11.93-.31 1.33-.49.99-1.51 1.67-2.69 1.67s-2.2-.68-2.69-1.67c-.2-.4-.31-.85-.31-1.33 0-1.46 1.03-2.67 2.4-2.94.2-.04.4-.06.6-.06.75 0 1.43.27 1.95.72.64.55 1.05 1.37 1.05 2.28z" fill="#d00000"/><path d="m48 46c1.66 0 3 2.25 3 7.5s-3 9.5-3 9.5z" fill="#e5e5e5"/><path d="m48 46v17s-3-4.25-3-9.5 1.34-7.5 3-7.5z" fill="#d5d4d6"/><path d="m51.95 42.43c-.76.94-2.24 1.57-3.95 1.57s-3.19-.63-3.95-1.57c.13-.91.61-1.68 1.26-2.1.49.99 1.51 1.67 2.69 1.67s2.2-.68 2.69-1.67c.65.42 1.13 1.19 1.26 2.1z" fill="#ff7f00"/><path d="m51 39c0 .48-.11.93-.31 1.33-.49.99-1.51 1.67-2.69 1.67-.9 0-1.7-.39-2.25-1.02.08.02.16.02.25.02 1.18 0 2.2-.68 2.69-1.67.2-.4.31-.85.31-1.33 0-.76-.28-1.45-.75-1.98.12 0 .23.02.35.04 1.37.27 2.4 1.48 2.4 2.94z" fill="#a80909"/><path d="m48 55.75v7.25s3-4.25 3-9.5c0-.276-.006-.539-.013-.799-.843 1.175-1.84 2.21-2.987 3.049z" fill="#b7a9a9"/><path d="m48 63v-7.25c-.777.568-1.624 1.043-2.54 1.409.84 3.431 2.54 5.841 2.54 5.841z" fill="#c4b8b8"/><path d="m47.152 37.717c-.643 0-.645 1 0 1 .644 0 .645-1 0-1z" fill="#f75b3c"/><path d="m63.04 21.8-15.62 4.35c-.49-.78-1.28-1.5-2.32-2.14.94-.55 1.98-1.25 3.12-2.13.04-.03.08-.06.11-.09.49-.17 1.02-.33 1.59-.49 6.65-1.85 13.12.5 13.12.5z" fill="#e5e5e5"/><path d="m52.09 29.01c-.01 0-.01 0-.02 0-1.55.43-2.9.71-4.07.85v-1.85c0-.65-.2-1.27-.58-1.86l15.62-4.35s-4.31 5.35-10.95 7.21z" fill="#d5d4d6"/><path d="m63.04 36.37-15.04-4.39v-.98-1.14c1.17-.14 2.52-.42 4.07-.85h.02c.02 0 .05.01.07.02 6.62 1.93 10.88 7.34 10.88 7.34z" fill="#e5e5e5"/><path d="m54.79 30.02c-.85.39-1.75.72-2.7.99-.01 0-.01 0-.02 0-1.55.43-2.9.71-4.07.85v-2c1.17-.14 2.52-.42 4.07-.85h.02c.02 0 .05.01.07.02.93.27 1.8.61 2.63.99z" fill="#c4b8b8"/><path d="m48 31.98 15.04 4.39s-6.48 2.26-13.09.35c-.52-.45-1.2-.72-1.95-.72z" fill="#d5d4d6"/><path d="m63.04 21.8-15.62 4.35c-.49-.78-1.28-1.5-2.32-2.14.94-.55 1.98-1.25 3.12-2.13.04-.03.08-.06.11-.09.49-.17 1.02-.33 1.59-.49 6.65-1.85 13.12.5 13.12.5z" fill="#e5e5e5"/><path d="m52.09 29.01c-.01 0-.01 0-.02 0-1.55.43-2.9.71-4.07.85v-1.85c0-.65-.2-1.27-.58-1.86l15.62-4.35s-4.31 5.35-10.95 7.21z" fill="#d5d4d6"/><path d="m63.04 36.37-15.04-4.39v-.98-1.14c1.17-.14 2.52-.42 4.07-.85h.02c.02 0 .05.01.07.02 6.62 1.93 10.88 7.34 10.88 7.34z" fill="#e5e5e5"/><path d="m48 31.98 15.04 4.39s-6.48 2.26-13.09.35c-.52-.45-1.2-.72-1.95-.72z" fill="#d5d4d6"/><path d="m55.68 11.08-14.54 11.21c-.29-.09-.59-.17-.89-.25-.12-.04-.24-.07-.36-.09 1.27-1.11 2.61-3.17 3.94-6.48.05-.13.1-.27.15-.4h.01c5.34-3.76 11.69-3.99 11.69-3.99z" fill="#e5e5e5"/><path d="m48.33 21.79c-.03.03-.07.06-.11.09-1.14.88-2.18 1.58-3.12 2.13-1.08-.67-2.42-1.26-3.96-1.72l14.54-11.21s-1.96 6.49-7.35 10.71z" fill="#d5d4d6"/><path d="m51.21 20.99c-.82.98-1.78 1.94-2.88 2.8-.03.03-.07.06-.11.09-.58.45-1.14.86-1.68 1.22-.4-.39-.89-.75-1.44-1.09.94-.55 1.98-1.25 3.12-2.13.04-.03.08-.06.11-.09.49-.17 1.02-.33 1.59-.49.43-.12.87-.22 1.29-.31z" fill="#c4b8b8"/><path d="m48 31.98v4.02c-.2 0-.4.02-.6.06-1.11-1.71-3.7-3.16-7.12-4.06.38-1.49.58-2.84.65-4.03l.07.03h4l3 3z" fill="#a80909"/><path d="m48 29.86v1.14l-3-3h-4l-.07-.03c.2-2.98-.34-5.01-.68-5.93.3.08.6.16.89.25 1.54.46 2.88 1.05 3.96 1.72 1.04.64 1.83 1.36 2.32 2.14.38.59.58 1.21.58 1.86z" fill="#ff9700"/><path d="m44.79 2.38s1.55 6.42-.81 12.69c-.05.13-.1.27-.15.4-1.33 3.31-2.67 5.37-3.94 6.48-.87-.22-1.79-.4-2.76-.54z" fill="#d5d4d6"/><path d="m43.42 20.54c-.45.81-.88 1.5-1.31 2.07-.31-.12-.64-.22-.97-.32z" fill="#b7a9a9"/><path d="m45.86 13.91c-.19 1.03-.48 2.1-.88 3.16-.05.13-.1.27-.15.4-.48 1.17-.95 2.19-1.41 3.07l-2.28 1.75c-.29-.09-.59-.17-.89-.25-.12-.04-.24-.07-.36-.09 1.27-1.11 2.61-3.17 3.94-6.48.05-.13.1-.27.15-.4h.01c.61-.43 1.24-.82 1.87-1.16z" fill="#c4b8b8"/><path d="m44.79 2.38-7.66 19.03c-.79-.12-1.62-.21-2.46-.27.82-1.49 1.33-3.95 1.33-7.63h.02c.12-.33.25-.68.39-1.03 2.58-6.4 8.38-10.1 8.38-10.1z" fill="#e5e5e5"/><path d="m40.25 22.04c.34.92.88 2.95.68 5.93l-8.93-3.97-8.93 3.97c-.2-2.98.34-5.01.68-5.93.12-.04.24-.07.36-.09.87-.22 1.79-.4 2.76-.54.79-.12 1.62-.21 2.46-.27.87-.07 1.76-.1 2.67-.1s1.8.03 2.67.1c.84.06 1.67.15 2.46.27.97.14 1.89.32 2.76.54.12.02.24.05.36.09z" fill="#d00000"/><path d="m40.25 22.04c.34.92.88 2.95.68 5.93l-8.93-3.97-8.93 3.97c-.2-2.98.34-5.01.68-5.93.12-.04.24-.07.36-.09.87-.22 1.79-.4 2.76-.54.79-.12 1.62-.21 2.46-.27.87-.07 1.76-.1 2.67-.1s1.8.03 2.67.1c.84.06 1.67.15 2.46.27.97.14 1.89.32 2.76.54.12.02.24.05.36.09z" fill="#d00000"/><path d="m32 24 8.93 3.97c-.07 1.19-.27 2.54-.65 4.03-2.42-.64-5.25-1.01-8.28-1.01s-5.86.37-8.28 1.01c-.38-1.49-.58-2.84-.65-4.03z" fill="#ff9700"/><path d="m36 13.5v.01c0 3.68-.51 6.14-1.33 7.63-.87-.07-1.76-.1-2.67-.1v-20.04s4 5.6 4 12.5z" fill="#d5d4d6"/><path d="m38 14.5v.01c0 3.13-.37 5.37-.98 6.89-.76-.12-1.55-.2-2.35-.26.82-1.49 1.33-3.95 1.33-7.63h.02c.12-.33.25-.68.39-1.03.32-.8.7-1.56 1.1-2.27.3 1.34.49 2.78.49 4.29z" fill="#c4b8b8"/><path d="m32 1v20.04c-.91 0-1.8.03-2.67.1-.82-1.49-1.33-3.95-1.33-7.63v-.01c0-6.9 4-12.5 4-12.5z" fill="#e5e5e5"/><path d="m28 13.51c0 3.68.51 6.14 1.33 7.63-.84.06-1.67.15-2.46.27l-7.66-19.03s5.8 3.7 8.38 10.1c.14.35.27.7.39 1.03z" fill="#e5e5e5"/><path d="m19.21 2.38 7.66 19.03c-.97.14-1.89.32-2.76.54-1.27-1.11-2.61-3.17-3.94-6.48-.05-.13-.1-.27-.15-.4-2.36-6.27-.81-12.69-.81-12.69z" fill="#d5d4d6"/><path d="m24.11 21.95c-.12.02-.24.05-.36.09-.3.08-.6.16-.89.25l-14.54-11.21s6.35.23 11.69 3.99h.01c.05.13.1.27.15.4 1.33 3.31 2.67 5.37 3.94 6.48z" fill="#e5e5e5"/><path d="m23.72 32c-3.42.9-6.01 2.35-7.12 4.06-.2-.04-.4-.06-.6-.06v-4.02-.98l3-3h4l.07-.03c.07 1.19.27 2.54.65 4.03z" fill="#d00000"/><path d="m23.07 27.97-.07.03h-4l-3 3v-1.14-1.85c0-.65.2-1.27.58-1.86.49-.78 1.28-1.5 2.32-2.14 1.08-.67 2.42-1.26 3.96-1.72.29-.09.59-.17.89-.25-.34.92-.88 2.95-.68 5.93z" fill="#ff9700"/><path d="m40.93 27.97.07.03h4l3 3v-1.14-1.85c0-.65-.2-1.27-.58-1.86-.49-.78-1.28-1.5-2.32-2.14-.26-.161-.537-.318-.826-.469-1.064.711-2.185 1.353-3.349 1.938.053.739.067 1.563.005 2.491z" fill="#ff7f00"/><path d="m46.46 23.15c-.47.32-.93.61-1.36.86-1.08-.67-2.42-1.26-3.96-1.72l.74-.57c.34.07.68.15 1.01.23.12.02.24.05.36.09.3.08.6.16.89.25.84.25 1.62.54 2.32.86z" fill="#b7a9a9"/><path d="m49.89 25.46-2.47.69c-.49-.78-1.28-1.5-2.32-2.14.43-.25.89-.54 1.36-.86.28.12.55.25.81.39.29.15.57.31.83.47.72.45 1.33.93 1.79 1.45z" fill="#c4b8b8"/><path d="m51 28.01v1.27c-.28.08-.55.14-.81.19-.27.06-.52.12-.77.16-.25.05-.5.09-.73.13-.24.04-.47.07-.69.1v-1.85c0-.65-.2-1.27-.58-1.86l2.47-.69c.2.22.38.45.53.69.38.59.58 1.21.58 1.86z" fill="#b7a9a9"/><path d="m51 29.28v3.58l-3-.88v-2.12c.22-.03.45-.06.69-.1.24-.03.48-.07.73-.13.25-.04.5-.1.77-.16.26-.05.53-.11.81-.19z" fill="#c4b8b8"/><path d="m51 32.86v3.14c-.05 0-.62.17-1.47.42-.44-.27-.97-.42-1.53-.42v-4.02z" fill="#b7a9a9"/><path d="m40.93 27.97c.062-.928.048-1.752-.005-2.491-.9.452-1.824.871-2.772 1.257z" fill="#a80909"/><path d="m23.72 32c2.42-.64 5.25-1.01 8.28-1.01s5.86.37 8.28 1.01c.38-1.49.58-2.84.65-4.03l-2.777-1.235c-4.623 1.883-9.744 3.023-14.741 3.867.087.453.185.915.308 1.398z" fill="#ff7f00"/><path d="m16 31.98v4.02c.2 0 .4.02.6.06 1.11-1.71 3.7-3.16 7.12-4.06-.123-.483-.221-.945-.308-1.398-2.531.427-5.027.78-7.412 1.115z" fill="#a80909"/><path d="m15.67 21.79c-5.39-4.22-7.35-10.71-7.35-10.71l14.54 11.21c-1.54.46-2.88 1.05-3.96 1.72-.94-.55-1.98-1.25-3.12-2.13-.04-.03-.08-.06-.11-.09z" fill="#d5d4d6"/><path d="m19.994 43.013c0 .819-.27 1.579-.7 2.119-.44.54-1.039.879-1.699.879h-1.599-1.599c-1.319 0-2.398-1.349-2.398-2.998 0-1.159.53-2.169 1.309-2.668.49.989 1.509 1.669 2.688 1.669s2.199-.68 2.688-1.669c.78.499 1.31 1.509 1.31 2.668z" fill="#ff9700"/><path d="m19.95 42.43c-.76.94-2.24 1.57-3.95 1.57s-3.19-.63-3.95-1.57c.13-.91.61-1.68 1.26-2.1.49.99 1.51 1.67 2.69 1.67s2.2-.68 2.69-1.67c.65.42 1.13 1.19 1.26 2.1z" fill="#ff7f00"/><path d="m18.995 39.015c0 .48-.11.929-.31 1.329-.49.989-1.509 1.669-2.688 1.669s-2.199-.68-2.688-1.669c-.2-.4-.31-.849-.31-1.329 0-.909.41-1.729 1.049-2.279.52-.45 1.199-.72 1.949-.72.2 0 .4.02.6.06 1.368.271 2.398 1.48 2.398 2.939z" fill="#d00000"/><path d="m19 39c0 .48-.11.93-.31 1.33-.49.99-1.51 1.67-2.69 1.67-.9 0-1.7-.39-2.25-1.02.08.02.16.02.25.02 1.18 0 2.2-.68 2.69-1.67.2-.4.31-.85.31-1.33 0-.76-.28-1.45-.75-1.98.12 0 .23.02.35.04 1.37.27 2.4 1.48 2.4 2.94z" fill="#a80909"/><path d="m15.996 46.011c1.659 0 2.998 2.249 2.998 7.495s-2.998 9.494-2.998 9.494z" fill="#d5d4d6"/><path d="m18.9 24.01c-1.04.64-1.83 1.36-2.32 2.14l-15.62-4.35s6.47-2.35 13.12-.5c.57.16 1.1.32 1.59.49.03.03.07.06.11.09 1.14.88 2.18 1.58 3.12 2.13z" fill="#e5e5e5"/><path d="m11.91 29.01c-6.64-1.86-10.95-7.21-10.95-7.21l15.62 4.35c-.38.59-.58 1.21-.58 1.86v1.85c-1.17-.14-2.52-.42-4.07-.85-.01 0-.01 0-.02 0z" fill="#d5d4d6"/><path d="m15.996 46.011v16.989s-2.998-4.247-2.998-9.494 1.34-7.495 2.998-7.495z" fill="#e5e5e5"/><path d="m16 55.75v7.25s3-4.25 3-9.5c0-.276-.006-.539-.013-.799-.843 1.175-1.84 2.21-2.987 3.049z" fill="#b7a9a9"/><path d="m16 63v-7.25c-.777.568-1.624 1.043-2.54 1.409.84 3.431 2.54 5.841 2.54 5.841z" fill="#c4b8b8"/><path d="m15.996 32v4.017c-.75 0-1.429.27-1.949.72-6.606 1.909-13.082-.35-13.082-.35z" fill="#d5d4d6"/><path d="m16 31v.98l-15.04 4.39s4.26-5.41 10.88-7.34c.02-.01.05-.02.07-.02h.02c1.55.43 2.9.71 4.07.85z" fill="#e5e5e5"/><g fill="#c4b8b8"><path d="m29.33 21.14c-.8.06-1.59.14-2.35.26-.61-1.52-.98-3.76-.98-6.89v-.01c0-1.51.19-2.95.49-4.29.4.71.78 1.47 1.1 2.27.14.35.27.7.39 1.03h.02c0 3.68.51 6.14 1.33 7.63z"/><path d="m24.11 21.95c-.12.02-.24.05-.36.09-.3.08-.6.16-.89.25l-2.28-1.75c-.46-.88-.93-1.9-1.41-3.07-.05-.13-.1-.27-.15-.4-.4-1.06-.69-2.13-.88-3.16.63.34 1.26.73 1.87 1.16h.01c.05.13.1.27.15.4 1.33 3.31 2.67 5.37 3.94 6.48z"/><path d="m18.9 24.01c-.74.46-1.36.96-1.83 1.49-.71-.46-1.48-.99-2.29-1.62-.04-.03-.08-.06-.11-.09-1.17-.92-2.18-1.95-3.04-2.99.81.11 1.63.27 2.45.5.57.16 1.1.32 1.59.49.03.03.07.06.11.09 1.14.88 2.18 1.58 3.12 2.13z"/><path d="m16 29.86v1.84c-.92-.15-1.94-.39-3.07-.7-.01 0-.01 0-.02 0-1.13-.32-2.2-.74-3.18-1.21.67-.29 1.38-.55 2.11-.76.02-.01.05-.02.07-.02h.02c1.55.43 2.9.71 4.07.85z"/></g><path d="m15.152 37.717c-.643 0-.645 1 0 1 .644 0 .645-1 0-1z" fill="#f75b3c"/><path d="m63.824 35.748c-.158-.2-3.446-4.314-8.837-6.727 5.342-2.336 8.667-6.394 8.827-6.592.203-.251.271-.585.185-.896-.087-.311-.318-.561-.622-.671-.247-.09-5.552-1.967-11.604-.978 3.448-3.958 4.793-8.29 4.861-8.516.093-.309.031-.645-.166-.9-.197-.256-.504-.409-.828-.389-.234.009-5.076.223-9.954 2.79 1.288-5.541.138-10.479.079-10.722-.076-.314-.298-.572-.598-.692-.298-.12-.638-.089-.911.084-.217.138-4.705 3.042-7.618 8.186-.989-5.281-3.686-9.112-3.825-9.307-.375-.525-1.252-.525-1.627 0-.139.195-2.836 4.026-3.825 9.307-2.913-5.143-7.402-8.048-7.618-8.186-.272-.174-.612-.206-.911-.084-.3.121-.522.378-.598.692-.059.243-1.209 5.18.079 10.722-4.878-2.567-9.72-2.781-9.954-2.79-.319-.021-.631.133-.828.389-.197.255-.259.591-.166.9.068.226 1.413 4.558 4.861 8.515-6.051-.99-11.357.889-11.604.979-.303.11-.535.36-.622.671-.086.311-.018.645.185.896.159.198 3.48 4.25 8.815 6.586-5.361 2.393-8.667 6.532-8.825 6.732-.199.253-.264.588-.174.898s.325.557.629.664c.192.067 3.44 1.181 7.708 1.181 1.184 0 2.451-.101 3.749-.319-.055.269-.087.545-.087.829 0 .352.06.688.146 1.013-.718.75-1.146 1.828-1.146 2.987 0 1.749.965 3.223 2.297 3.765-.731 1.23-1.297 3.288-1.297 6.735 0 5.5 3.053 9.892 3.183 10.076.187.266.492.424.817.424s.63-.158.817-.424c.13-.184 3.183-4.576 3.183-10.076 0-3.446-.566-5.504-1.297-6.734 1.333-.542 2.299-2.016 2.299-3.766 0-1.16-.429-2.239-1.148-2.988.086-.325.146-.66.146-1.012 0-1.373-.697-2.586-1.754-3.307 2.182-1.957 7.17-3.701 13.754-3.701s11.573 1.744 13.754 3.701c-1.057.721-1.754 1.934-1.754 3.307 0 .352.06.687.146 1.012-.718.749-1.148 1.828-1.148 2.988 0 1.749.966 3.224 2.299 3.766-.731 1.23-1.297 3.288-1.297 6.734 0 5.5 3.053 9.892 3.183 10.076.187.266.492.424.817.424s.63-.158.817-.424c.13-.184 3.183-4.576 3.183-10.076 0-3.447-.566-5.505-1.296-6.735 1.332-.542 2.296-2.016 2.296-3.765 0-1.159-.429-2.237-1.147-2.987.087-.325.147-.661.147-1.013 0-.284-.032-.56-.088-.828 1.298.218 2.565.319 3.749.319 4.267 0 7.516-1.114 7.708-1.181.305-.107.539-.354.629-.664s.025-.645-.174-.898zm-53.028-21.498 10.014 7.726c-.673.273-1.304.568-1.875.888-.8-.492-1.652-1.083-2.547-1.773-2.665-2.056-4.467-4.73-5.592-6.841zm8.938-7.88 5.746 14.263c-.362.069-.711.147-1.059.227-.851-.873-2.033-2.549-3.327-5.763-1.257-3.119-1.458-6.337-1.36-8.727zm2.597 17.155c-.179.917-.315 2.072-.297 3.475h-3.034c-.265 0-.52.105-.707.293l-1.293 1.293v-.578c0-1.603 1.992-3.308 5.331-4.483zm-7.331 4.483v.685c-.863-.154-1.797-.367-2.8-.646-3.241-.903-5.915-2.703-7.752-4.236l10.757 2.997c-.122.392-.205.79-.205 1.2zm0 2.716v.51l-10.569 3.08c1.78-1.516 4.369-3.29 7.526-4.263 1.085.292 2.105.52 3.043.673zm1 6.276c1.103 0 2 .897 2 2s-.897 2-2 2-2-.897-2-2 .897-2 2-2zm1-5.586 2.414-2.414h2.754c.079.72.207 1.488.379 2.296-2.314.706-4.228 1.672-5.548 2.832v-2.714zm7.532-8.536c2.149-.519 4.673-.834 7.468-.834s5.319.315 7.468.834c.225.761.466 1.972.496 3.567l-7.557-3.359c-.259-.115-.554-.115-.812 0l-7.557 3.359c.028-1.594.269-2.806.494-3.567zm19.734-16.508c.098 2.39-.103 5.607-1.36 8.728-1.294 3.213-2.476 4.89-3.327 5.763-.348-.08-.697-.159-1.059-.227zm2.734 21.638v.578l-1.293-1.293c-.187-.188-.442-.293-.707-.293h-3.033c.017-1.402-.118-2.558-.297-3.475 3.338 1.175 5.33 2.88 5.33 4.483zm1.795-1.2 10.757-2.997c-1.837 1.533-4.511 3.333-7.751 4.236-1.003.279-1.937.492-2.8.646v-.685c-.001-.41-.084-.808-.206-1.2zm-6.963 2.192h2.754l2.414 2.414v2.714c-1.32-1.16-3.234-2.126-5.548-2.833.172-.807.301-1.575.38-2.295zm6.168 8c1.103 0 2 .897 2 2s-.897 2-2 2-2-.897-2-2 .897-2 2-2zm1-6.276c.94-.153 1.963-.381 3.051-.675 3.149.956 5.742 2.742 7.527 4.268l-10.578-3.084zm10.014-8.84-11.228 3.128c-.269-.319-.577-.627-.927-.923.634-.421 1.291-.888 1.968-1.411.432-.14.881-.278 1.362-.412 3.241-.902 6.461-.744 8.825-.382zm-7.034-9.215-3.292 2.54c-.438.337-.518.965-.181 1.402.198.255.493.389.793.389.213 0 .428-.068.61-.208l3.294-2.541c-1.126 2.111-2.927 4.785-5.591 6.84-.895.69-1.747 1.281-2.547 1.773-.571-.32-1.202-.614-1.875-.887l4.42-3.41c.438-.337.518-.965.181-1.403-.338-.438-.965-.518-1.403-.181l-3.467 2.675c.633-1.078 1.248-2.343 1.84-3.812.015-.037.026-.074.041-.112 2.444-1.659 5.094-2.57 7.177-3.065zm-9.569-7.046-5.922 14.701c-.121-.015-.243-.029-.365-.043.562-1.648.854-3.834.872-6.529.108-.292.222-.589.345-.895 1.257-3.121 3.343-5.579 5.07-7.234zm-8.355 14.482c-.348-.019-.701-.029-1.056-.038v-15.171c.984 2.18 2 5.24 2 8.604 0 3.464-.468 5.46-.944 6.605zm-3.056-15.209v15.171c-.355.009-.708.019-1.056.038-.476-1.145-.944-3.141-.944-6.605 0-3.364 1.016-6.424 2-8.604zm-4.341 7.959c.124.307.237.604.346.896.017 2.695.31 4.882.872 6.529-.122.014-.244.028-.365.043l-5.922-14.7c1.726 1.655 3.812 4.113 5.069 7.232zm-7.421 2.99c.592 1.469 1.207 2.735 1.84 3.813l-9.059-6.989c2.083.495 4.733 1.406 7.178 3.065.015.037.026.074.041.111zm-5.427 6.422c.482.134.931.273 1.363.412.677.522 1.333.99 1.967 1.41-.35.296-.658.604-.927.923l-11.228-3.128c2.365-.362 5.585-.52 8.825.383zm-8.828 13.969 10.017-2.92v1.826c-.499.13-.958.349-1.362.647-3.175.89-6.327.775-8.655.447zm12.016 22.534-.001-6.772c0-.552-.448-1-1-1s-1 .448-1 1l.001 6.779c-.544-1.481-.999-3.309-.999-5.277 0-4.45 1.028-6.484 1.987-6.5h.022c.961.016 1.991 2.05 1.991 6.5 0 1.96-.456 3.786-1.001 5.27zm.602-13.77h-1.571c-.01 0-.022-.001-.032-.001s-.022.001-.032.001h-1.566c-.759 0-1.4-.916-1.4-2 0-.402.092-.785.249-1.11.718.683 1.683 1.11 2.751 1.11s2.034-.427 2.753-1.111c.157.325.249.709.249 1.111 0 1.084-.642 2-1.401 2zm6.88-14.213c-.162-.775-.286-1.513-.355-2.193l7.874-3.5 7.873 3.499c-.069.68-.192 1.418-.355 2.193-2.276-.51-4.829-.794-7.518-.794-2.69 0-5.242.285-7.519.795zm22.52 16.998-.001 10.996c-.545-1.483-1-3.311-1-5.281 0-2.887.434-4.753 1.001-5.715zm1.999 10.982.001-10.981c.566.964.999 2.829.999 5.714 0 1.959-.455 3.784-1 5.267zm.6-13.767h-1.566c-.01 0-.022-.001-.032-.001s-.022.001-.032.001h-1.571c-.759 0-1.401-.916-1.401-2 0-.403.092-.786.249-1.111.719.684 1.685 1.111 2.753 1.111s2.033-.427 2.751-1.11c.158.325.249.708.249 1.11 0 1.084-.641 2-1.4 2zm.762-9.211c-.404-.298-.863-.517-1.362-.647v-1.826l10.028 2.923c-2.326.329-5.479.445-8.666-.45z" fill="#472b3c"/></svg>