<svg width="246" height="55" viewBox="0 0 246 55" fill="none" xmlns="http://www.w3.org/2000/svg">
<path d="M0.681252 8.69542H18.9083V3.69195H0.681252V8.69542ZM32.4398 50.4508H38.039L26.4237 5.1215H20.8841L32.4398 50.4508ZM42.0024 53.9651H70.0573V48.8425H42.0024V53.9651ZM87.2397 54.2032L91.3499 50.0936C85.0955 45.1495 80.5688 37.8229 80.5688 27.4585C80.5688 17.0942 85.0955 9.8272 91.3499 4.82367L87.2397 0.713684C80.211 5.95545 74.5525 14.9498 74.5525 27.4585C74.5525 39.9672 80.211 48.9616 87.2397 54.2032ZM119.532 2.67935L114.946 4.22802C116.435 7.32546 119.83 16.5581 120.782 19.9533L125.429 18.3451C124.416 15.0094 120.842 5.5385 119.532 2.67935ZM145.979 6.49151L140.499 4.94285C139.308 13.8777 135.674 23.4081 130.968 29.4242C124.952 37.0485 116.077 42.7668 107.559 45.2686L111.669 49.4382C120.068 46.4599 128.884 40.3246 135.019 32.2237C139.903 25.7907 143.119 17.2729 144.906 9.88672C145.145 8.93372 145.562 7.50411 145.979 6.49151ZM102.913 6.25328L98.2073 7.98065C99.6372 10.542 103.747 20.6085 104.879 24.3016L109.584 22.5742C108.214 18.7024 104.462 9.5889 102.913 6.25328ZM156.998 54.2032C164.087 48.9616 169.686 39.9672 169.686 27.4585C169.686 14.9498 164.087 5.95545 156.998 0.713684L152.888 4.82367C159.203 9.8272 163.67 17.0942 163.67 27.4585C163.67 37.8229 159.203 45.1495 152.888 50.0936L156.998 54.2032ZM174.161 53.9651H202.216V48.8425H174.161V53.9651ZM206.294 50.4508H211.893L223.27 5.1215H217.79L206.294 50.4508ZM227.653 8.69542H245.88V3.69195H227.653V8.69542Z" fill="#ED1164"/>
</svg>
